<svg xmlns="http://www.w3.org/2000/svg" xmlns:xlink="http://www.w3.org/1999/xlink" width="136" height="35" viewBox="0 0 136 35">
    <defs>
        <path id="a" d="M.165.138h17.944V18.62H.165z"/>
    </defs>
    <g fill="none" fill-rule="evenodd">
        <path fill="#444" d="M15.303 6.505l-.71-2.834c-1.614.419-2.808 1.803-2.97 1.996v8.984l3.422 1.095v2.318H3.749v-2.286l3.066-1.095V4.443L3.297 3.285V.42h7.552l.194 2.544C11.753 1.996 13.915 0 16.884 0c.872 0 1.743.097 2.066.161v6.344h-3.647zM29.568 13.088c-2.614 0-3.26 1.932-3.518 3.992h6.552c0-1.352-.194-3.992-3.034-3.992zm-3.518 7.019c0 1.675.452 4.83 5.164 4.83 1.969 0 4.26-.483 5.132-.708l.71 3.284c-.904.386-3.518 1.16-6.584 1.16-8.166 0-9.424-5.83-9.424-8.985 0-5.538 2.517-9.499 8.843-9.499 7.649 0 7.81 5.732 7.81 9.403v.515h-11.65zM51.289 13.731c-1.324 0-2.518.741-3.518 1.772v9.756c.516.032 1.29.064 1.904.064 3.647 0 5.067-2.543 5.067-6.44 0-2.8-.968-5.152-3.453-5.152m-1.066 14.973c-.87 0-1.645-.064-2.452-.16v2.994l3.55 1.127v2.318H39.896v-2.286l3.066-1.127V14.698l-3.518-1.192V10.64h7.036l.193 2.512c.936-1.127 2.453-2.963 5.616-2.963 5.164 0 7.391 4.09 7.391 8.63 0 5.41-3.163 9.885-9.457 9.885M71.04 20.3c-1.71 0-4.034.065-4.034 2.512 0 1.578 1.162 2.222 2.518 2.222 2.97 0 3.421-2.834 3.356-4.637-.613-.032-1.226-.097-1.84-.097zm2.776 7.986l-.258-2.898c-.84 1.642-2.517 3.284-5.551 3.284-3.195 0-5.906-1.77-5.906-5.248 0-4.863 3.905-5.957 7.649-5.957 1.065 0 2.097.064 3.034.096v-1.255c0-1.353-.258-2.48-2.711-2.48-2.195 0-4.81.58-5.81.87l-.742-3.06c1.194-.45 4.357-1.416 7.294-1.416 3.421 0 6.745 1.062 6.745 5.86v8.823l3.098 1.094v2.287h-6.842zM92.955 16.726l-.71-2.833c-1.614.418-2.808 1.803-2.97 1.996v8.983l3.422 1.096v2.318H81.4V26l3.066-1.095v-10.24l-3.518-1.16V10.64H88.5l.194 2.544c.71-.966 2.872-2.962 5.841-2.962.872 0 1.743.096 2.066.16v6.344h-3.647zM107.22 13.088c-2.614 0-3.26 1.932-3.517 3.992h6.551c0-1.352-.194-3.992-3.033-3.992zm-3.517 7.019c0 1.675.452 4.83 5.163 4.83 1.97 0 4.26-.483 5.132-.708l.71 3.284c-.904.386-3.518 1.16-6.584 1.16-8.166 0-9.424-5.83-9.424-8.985 0-5.538 2.517-9.499 8.843-9.499 7.65 0 7.81 5.732 7.81 9.403v.515h-11.65z"/>
        <g transform="translate(117.739 10.052)">
            <mask id="b" fill="#fff">
                <use xlink:href="#a"/>
            </mask>
            <path fill="#444" d="M9.137 3.068c-2.808 0-3.97 2.254-3.97 6.311 0 4.09 1.162 6.28 3.97 6.28 2.84 0 3.97-2.223 3.97-6.312 0-4.057-1.13-6.279-3.97-6.279m0 15.552C3.392 18.62.165 15.304.165 9.38S3.392.138 9.137.138c5.745 0 8.972 3.316 8.972 9.241s-3.227 9.241-8.972 9.241" mask="url(#b)"/>
        </g>
        <path fill="#2688D9" d="M11.774 28.326v-4.903l6.728-1.095v-2.153H0v2.185l6.968 1.095v4.87z"/>
    </g>
</svg>
